<svg width="201" height="62" viewBox="0 0 201 62" fill="none" xmlns="http://www.w3.org/2000/svg">
<path fill-rule="evenodd" clip-rule="evenodd" d="M42.108 43.3174C44.5987 40.2231 46.2962 38.0111 50.3641 35.5319C54.9498 32.7371 57.3689 30.3415 57.5858 27.4131C57.7354 25.3924 57.0615 24.5906 56.7272 23.4882C56.5518 22.9099 56.6307 22.2952 56.7484 21.7024C56.8134 21.3753 56.8738 21.0474 56.9571 20.5978C57.3152 18.7698 57.7533 16.6974 57.4034 14.8346C57.3927 14.778 57.4449 14.7292 57.5002 14.7446C57.6673 14.7926 57.7807 14.7167 57.737 14.567C57.6517 14.2343 57.5282 13.9127 57.3689 13.6088C57.2678 13.4467 57.12 13.3194 56.9452 13.2434C56.872 13.2151 56.8119 13.1611 56.774 13.0923C56.6885 12.9373 56.5963 12.7862 56.4977 12.6392C56.4805 12.6135 56.4603 12.5899 56.4379 12.5687C56.2916 12.4312 56.1049 12.3474 55.9152 12.2826C55.1563 12.0237 54.7543 12.0214 54.3358 12.2349C54.1273 12.3412 53.9455 12.5278 53.9434 12.7623C53.9432 12.7807 53.9438 12.7991 53.945 12.8175C53.9476 12.8553 53.9496 12.8924 53.9527 12.9303C53.9559 12.9703 53.9698 13.0095 53.9786 13.0487C54.0129 13.2011 54.0335 13.3303 54.0626 13.4826C54.0698 13.5198 54.0566 13.5582 54.0279 13.5829C54.0218 13.5881 54.0163 13.5941 54.0117 13.6007C53.9739 13.6551 53.9469 13.7163 53.932 13.781C53.9163 13.8496 53.9147 13.9207 53.9272 13.99C53.9849 14.3753 54.0141 14.7643 54.0147 15.1539C54.0147 15.3375 54.0923 15.4194 54.1858 15.3535C54.2123 15.3332 54.2504 15.3534 54.2484 15.3869C54.1201 17.5081 53.7887 19.6121 53.2587 21.6698C53.0081 22.7034 52.0296 23.351 50.978 23.4921C48.186 23.8667 47.4247 25.9643 46.5329 27.946C44.1969 33.1363 41.9309 34.8131 39.2233 37.9274C37.645 39.7427 32.7249 43.5387 31.9233 45.8783C31.719 46.4743 32.0597 47.067 32.5475 47.4645C33.1135 47.9258 33.8964 48.4941 34.5501 49.0588C36.3386 50.6038 38.1291 56.7923 40.3792 47.1244C40.5828 46.2493 41.5452 44.0165 42.108 43.3174Z" fill="white"/>
<path fill-rule="evenodd" clip-rule="evenodd" d="M44.2871 21.2376C44.6335 20.9459 45.153 21.2629 45.0324 21.5335C44.8005 21.9292 44.4942 22.2798 44.1292 22.5674C43.7652 22.8612 43.3005 22.5337 43.4364 22.2588C43.6597 21.8755 43.9471 21.5305 44.2871 21.2376Z" fill="white"/>
<path fill-rule="evenodd" clip-rule="evenodd" d="M44.1061 22.4478C43.8911 22.6272 43.3286 22.7272 43.0117 24.4232C42.7603 25.7686 41.3768 27.7621 39.4397 28.8396C34.2326 31.7363 31.3096 33.8175 31.7407 37.9465C31.7787 38.3104 32.2249 38.4244 32.4436 38.1318C32.5217 38.0273 32.5513 37.883 32.5259 37.7549C31.671 33.4431 40.3416 29.6096 42.6892 26.3677C43.618 25.0714 44.4802 23.634 45.0284 22.517C45.5552 21.4367 45.1789 21.5512 44.9575 21.7305C44.6651 21.9711 44.3813 22.2102 44.1061 22.4478Z" fill="white"/>
<path fill-rule="evenodd" clip-rule="evenodd" d="M50.5919 1.79441C49.2173 0.489251 47.3518 0.184381 46.7498 2.87355C46.086 7.25046 46.7498 12.2517 44.1693 17.5065C43.5289 19.1468 41.8206 21.7836 42.3742 22.7597C42.9078 23.7005 43.3766 21.7608 45.1585 20.96C49.8712 17.6687 57.4156 8.27333 50.5919 1.79441Z" fill="white"/>
<path fill-rule="evenodd" clip-rule="evenodd" d="M36.9132 35.8383C36.4304 35.8038 35.8207 35.9121 35.2334 36.3553C35.1788 36.3989 35.1252 36.4416 35.0727 36.4836C34.3248 36.0487 32.7761 36.2035 31.5573 37.1444C30.589 37.892 30.344 39.4978 30.3388 40.3121C30.3377 40.4834 30.4037 40.6114 30.5104 40.6667C30.4501 40.7271 30.3883 40.7889 30.325 40.8521C29.8545 41.3926 29.6171 41.9166 29.5154 42.3593C29.3358 43.141 30.0518 43.2763 30.6663 42.7483C31.783 41.7887 32.7679 40.857 33.7553 39.923C34.7767 38.9568 35.8008 37.9881 36.9761 36.9835C37.5414 36.5003 37.6461 35.8908 36.9132 35.8383Z" fill="white"/>
<path fill-rule="evenodd" clip-rule="evenodd" d="M52.6278 39.4694C52.1763 39.6919 51.7206 39.1956 51.9274 38.9322C52.2885 38.5628 52.7149 38.2642 53.1848 38.0517C53.6555 37.8318 54.0502 38.3242 53.8259 38.5879C53.4776 38.9461 53.0728 39.2439 52.6278 39.4694Z" fill="white"/>
<path fill-rule="evenodd" clip-rule="evenodd" d="M53.5131 38.0991C53.7664 37.9821 54.1221 37.39 55.0758 36.4798C56.0654 35.5436 56.9899 34.5379 58.8397 33.4329C63.5227 30.6354 63.5184 28.2917 63.7162 24.0586C63.7334 23.6905 63.3179 23.4631 63.029 23.6905C62.9309 23.7677 62.8638 23.8942 62.8579 24.0192C62.5294 30.9508 60.5032 31.4529 57.546 33.4329C54.2619 35.6317 53.4573 36.8593 52.6417 37.7932C51.8562 38.6973 52.2483 38.6846 52.5079 38.5693C52.8516 38.4134 53.1867 38.2566 53.5131 38.0991Z" fill="white"/>
<path fill-rule="evenodd" clip-rule="evenodd" d="M41.8848 56.3559C42.7269 57.3633 45.5201 59.6559 46.7967 57.2196C48.5678 53.1717 46.6454 46.9253 52.1655 42.8803C55.2355 40.6308 56.1005 39.8292 55.1052 38.7298C54.4358 37.9903 50.7261 39.2295 49.9298 40.9286C43.8247 53.9564 36.5482 49.9712 41.8848 56.3559Z" fill="white"/>
<path fill-rule="evenodd" clip-rule="evenodd" d="M61.8708 20.8735C61.4289 21.5034 61.5397 22.8935 62.4105 23.993C63.0764 24.8339 64.5149 25.0741 65.2756 25.0958C65.5809 25.1046 65.7441 24.8955 65.6021 24.6241C64.9531 23.3835 62.4038 20.114 61.8708 20.8735Z" fill="white"/>
<path fill-rule="evenodd" clip-rule="evenodd" d="M61.727 20.7729C61.3602 20.299 61.2513 19.8123 61.264 19.4105C61.2866 18.6908 61.9053 18.7811 62.3805 19.3207C64.1115 21.2867 65.7314 22.7828 67.4397 24.7043C67.9923 25.3257 67.82 26.0359 67.0248 25.7976C66.656 25.6871 66.238 25.4781 65.8105 25.1155C63.8289 23.183 63.4243 22.8486 61.727 20.7729Z" fill="white"/>
<path d="M7.11446 22.6157C8.06941 22.0566 10.165 21.3843 11.0934 21.118C10.4303 21.6172 8.76574 23.0949 7.41288 25.0119C5.72181 27.4082 5.42339 30.2038 8.60658 31.2022C11.7898 32.2007 13.5803 34.8965 14.2766 37.6921C13.4808 37.093 11.5908 37.2927 10.6955 37.5923C9.80027 37.8918 9.00448 38.1913 8.00973 38.391C7.01498 38.5907 5.22444 38.391 4.03074 37.5923C2.85454 36.8052 1.77492 34.758 0.887048 33.0743L0.84755 32.9994C-0.0477221 31.3021 -0.147197 29.4051 0.151227 28.0072C0.449652 26.6094 2.14072 25.5112 3.13547 24.8122C4.13022 24.1133 5.92076 23.3146 7.11446 22.6157Z" fill="white"/>
<path d="M14.5751 19.0213C13.5405 19.2609 12.7514 20.2527 12.4861 20.7187C15.0724 21.3177 14.6745 25.7108 14.4756 26.5096C14.2766 27.3083 13.3814 30.4035 14.4756 33.0993C15.351 35.2559 18.6204 37.2594 20.1456 37.9916C20.0793 37.8585 19.6483 37.093 18.4546 35.0962C16.9625 32.6001 17.3604 28.6063 17.3604 26.8091C17.3604 25.0119 17.5593 25.0119 18.0567 22.2163C18.5541 19.4207 15.8682 18.7218 14.5751 19.0213Z" fill="white"/>
<path d="M27.5068 10.8341C26.1141 12.1321 27.1089 13.4301 28.0041 14.129C32.9779 18.8216 32.1821 19.5205 28.7005 23.714C25.2189 27.9074 24.3236 31.4019 27.4073 40.1882C26.9099 37.4924 28.0041 33.0993 29.4963 30.5033C30.9884 27.9074 33.7737 24.7124 35.2658 20.9183C36.7579 17.1243 35.4648 12.9308 33.9726 10.5346C32.4805 8.13834 28.8994 9.53615 27.5068 10.8341Z" fill="white"/>
<path d="M39.8416 0.350523C38.449 -1.14713 38.1506 2.54709 37.7527 4.04474C36.9569 8.33802 37.7527 10.8341 38.9464 13.7296C40.1242 16.5866 39.6556 18.0827 38.5917 21.4791L38.5485 21.6172C44.4175 15.4269 43.6217 12.4316 43.6217 8.93709C43.6217 5.44256 41.2343 1.84818 39.8416 0.350523Z" fill="white"/>
<path d="M21.4307 28.7615C21.5287 28.4405 21.5608 28.0792 21.4383 27.7783H21.5608C21.6016 27.8786 21.9206 28.3603 21.6756 28.7615C21.3425 29.3072 22.0431 29.5639 22.1655 29.965C22.288 30.3662 21.5532 30.8677 21.5532 31.5698C21.5532 32.2718 22.288 32.2718 22.6554 32.7733C23.0229 33.2748 22.533 33.8766 22.6554 34.4783C22.7779 35.0801 24.0027 35.2807 24.2476 35.5816C24.4926 35.8825 24.4926 36.7851 24.615 37.4872C24.713 38.0489 25.0641 38.5905 25.2274 38.791C25.1458 38.6907 24.909 38.3899 24.615 37.9887C24.2476 37.4872 24.2476 36.0831 24.0027 35.6819C23.7577 35.2807 22.6554 35.0801 22.4105 34.5786C22.1655 34.0772 22.7779 33.3751 22.4105 32.7733C22.0431 32.1715 21.4307 32.2718 21.3083 31.5698C21.1858 30.8677 22.0431 30.3662 21.7981 29.8647C21.5532 29.3633 21.3082 29.1627 21.4307 28.7615Z" fill="white"/>
<path d="M21.419 28.0245H21.4601L21.6476 28.0166C21.7483 28.0088 21.8489 27.7189 21.9152 27.3612C23.6441 24.6355 25.7091 20.7439 23.5915 17.867C23.221 17.4416 22.535 17.3344 22.3063 17.492C22.0776 17.6495 22.3955 17.9741 22.7682 18.3475C25.0254 21.0023 22.4023 24.7931 21.3115 27.4857C21.2657 27.7929 21.3275 28.034 21.419 28.0245Z" fill="white"/>
<path fill-rule="evenodd" clip-rule="evenodd" d="M24.5783 13.8148C22.5038 13.6841 21.0052 15.1981 20.1164 16.5616C19.9709 16.7866 20.1702 16.8726 20.4432 17.4402C20.5347 17.6349 20.5924 17.8393 20.6146 18.0475C20.7182 18.7093 20.6624 19.2785 20.8139 19.123C21.6847 18.2196 23.1275 16.7734 24.8134 17.7248C25.1044 17.8903 25.4232 17.7 25.4631 16.6575C25.4827 16.3022 25.4727 15.9461 25.4332 15.5919C25.3176 14.4932 24.921 13.9124 24.5783 13.8148Z" fill="white"/>
<path fill-rule="evenodd" clip-rule="evenodd" d="M149.622 27.9693C150.232 26.5355 150.492 24.9574 150.492 23.3003C150.492 16.7203 145.164 11.3863 138.592 11.3863C136.425 11.3863 134.393 11.9664 132.642 12.9801V14.8917C134.322 13.698 136.375 12.9963 138.592 12.9963C144.276 12.9963 148.884 17.6095 148.884 23.3003C148.884 24.9809 147.989 26.5676 147.276 27.9693H149.622Z" fill="white"/>
<path fill-rule="evenodd" clip-rule="evenodd" d="M137.138 30.3478C137.607 30.441 138.092 30.4899 138.588 30.4899C142.68 30.4899 145.997 27.1637 145.997 23.0607C145.997 18.9577 142.68 15.6315 138.588 15.6315C138.092 15.6315 137.607 15.6804 137.138 15.7736V17.4297C137.601 17.3102 138.087 17.2466 138.588 17.2466C141.79 17.2466 144.386 19.8496 144.386 23.0607C144.386 26.2718 141.79 28.8748 138.588 28.8748C138.087 28.8748 137.601 28.8112 137.138 28.6917V30.3478Z" fill="white"/>
<path fill-rule="evenodd" clip-rule="evenodd" d="M135.816 50.9471C136.997 51.2754 138.241 51.4508 139.526 51.4508C147.189 51.4508 153.401 45.2155 153.401 37.5238C153.401 33.825 151.965 30.4631 149.621 27.9693H147.256C150.021 30.2259 151.788 33.6678 151.788 37.5238C151.788 44.3211 146.298 49.8314 139.526 49.8314C138.233 49.8314 136.986 49.6303 135.816 49.2577V50.9471Z" fill="white"/>
<path fill-rule="evenodd" clip-rule="evenodd" d="M131.32 41.2391C132.446 44.7867 135.883 47.2055 139.843 47.2055C144.994 47.2055 149.17 43.0182 149.17 37.8527C149.17 32.6873 144.994 28.4999 139.843 28.4999C138.652 28.4999 137.513 28.7238 136.466 29.1318V30.8906C137.486 30.3922 138.632 30.1125 139.843 30.1125C144.106 30.1125 147.562 33.5779 147.562 37.8527C147.562 42.1276 144.106 45.593 139.843 45.593C136.791 45.593 134.181 43.8168 132.929 41.2391H131.32Z" fill="white"/>
<path d="M131.32 13.6852L132.907 12.8456V41.2357H131.32V13.6852Z" fill="white"/>
<path d="M135.816 15.8676L137.402 15.6315V50.6548H135.816V15.8676Z" fill="white"/>
<path fill-rule="evenodd" clip-rule="evenodd" d="M163.714 38.0517C168.413 36.9474 171.91 32.7336 171.91 27.7039C171.91 22.6742 168.413 18.4604 163.714 17.3561V19.0178C167.513 20.0835 170.299 23.5688 170.299 27.7039C170.299 31.839 167.513 35.3243 163.714 36.39V38.0517Z" fill="white"/>
<path fill-rule="evenodd" clip-rule="evenodd" d="M170.586 38.1858L176.392 51.5781L178.258 51.5834L171.975 36.898C171.559 37.2984 171.084 37.7417 170.586 38.1858ZM168.8 34.0514C169.253 33.5739 169.688 33.0379 170.076 32.4428L161.045 11.2536H158.954L168.8 34.0514Z" fill="white"/>
<path fill-rule="evenodd" clip-rule="evenodd" d="M166.763 41.0038L171.359 51.5782L173.234 51.5834L168.306 40.1143C167.715 40.5369 167.177 40.8597 166.763 41.0038ZM164.958 36.8318C165.36 36.6661 165.916 36.3832 166.539 35.9809L158.689 17.6214V22.343L164.958 36.8318Z" fill="white"/>
<path d="M158.689 22.2647H160.276V51.5834H158.689V22.2647Z" fill="white"/>
<path d="M163.185 31.9491L164.771 32.5929V51.5834H163.185V31.9491Z" fill="white"/>
<path fill-rule="evenodd" clip-rule="evenodd" d="M174.935 27.0901C174.935 19.2814 168.69 12.9427 160.958 12.8702L160.276 11.263C160.458 11.2567 160.64 11.2536 160.824 11.2536C169.503 11.2536 176.539 18.3438 176.539 27.0901C176.539 31.9045 174.407 36.2171 171.043 39.1216L170.301 37.6265C173.148 35.0248 174.935 31.2678 174.935 27.0901ZM167.963 39.359C166.802 40.0468 165.534 40.5719 164.191 40.9033V42.5623C165.748 42.2198 167.218 41.6447 168.565 40.8751L167.963 39.359Z" fill="white"/>
<path fill-rule="evenodd" clip-rule="evenodd" d="M109.371 11.2536H124.973V12.8649H110.98V49.4415H124.973V51.0528H109.371V11.2536Z" fill="white"/>
<path fill-rule="evenodd" clip-rule="evenodd" d="M124.973 29.8265H110.164V28.2345H124.973V29.8265Z" fill="white"/>
<path fill-rule="evenodd" clip-rule="evenodd" d="M113.999 15.8968H124.973V17.5183H115.613V29.0306H113.999V15.8968Z" fill="white"/>
<path fill-rule="evenodd" clip-rule="evenodd" d="M124.973 46.6748H110.429V45.0829H124.973V46.6748Z" fill="white"/>
<path fill-rule="evenodd" clip-rule="evenodd" d="M113.999 32.4798H124.973V34.0985H115.613V50.1241H113.999V32.4798Z" fill="white"/>
<path fill-rule="evenodd" clip-rule="evenodd" d="M98.325 12.9988H84.6974V11.3863H100.619L86.8082 49.4404H104.611V51.0529H84.5137L98.325 12.9988Z" fill="white"/>
<path fill-rule="evenodd" clip-rule="evenodd" d="M101.526 17.3741H84.6458V15.7642H103.813L93.348 44.9188L104.611 45.0651L104.59 46.6749L91.0707 46.4993L101.526 17.3741Z" fill="white"/>
<path d="M184.045 19.6314C184.59 15.882 187.8 13.003 191.678 13.003C195.557 13.003 198.767 15.882 199.311 19.6314H199.314L199.393 51.3182H201L200.933 19.6314H200.933C200.377 14.9864 196.446 11.3864 191.678 11.3864C186.911 11.3864 182.979 14.9864 182.424 19.6314H182.425L182.357 51.3182H183.964L184.046 19.6314H184.045Z" fill="white"/>
<path fill-rule="evenodd" clip-rule="evenodd" d="M188.461 20.7491C188.461 18.9626 189.902 17.5143 191.678 17.5143C193.455 17.5143 194.896 18.9626 194.896 20.7491C194.896 20.8034 194.895 20.8573 194.892 20.9109H194.896V51.3182H196.505L196.505 20.9109H196.502C196.504 20.8572 196.505 20.8033 196.505 20.7491C196.505 18.0693 194.344 15.8969 191.678 15.8969C189.013 15.8969 186.852 18.0693 186.852 20.7491C186.852 20.8033 186.853 20.8572 186.855 20.9109L186.852 20.9109V51.3182H188.461L188.467 20.9109H188.465C188.462 20.8573 188.461 20.8034 188.461 20.7491Z" fill="white"/>
<path fill-rule="evenodd" clip-rule="evenodd" d="M195.15 43.3583L182.754 35.9796L183.579 34.6025L195.976 41.9813L195.15 43.3583Z" fill="white"/>
<path fill-rule="evenodd" clip-rule="evenodd" d="M194.786 37.6538L187.381 33.3802L188.173 31.9492L195.578 36.2228L194.786 37.6538Z" fill="white"/>
</svg>
