<svg xmlns="http://www.w3.org/2000/svg" width="100%" height="100%" preserveAspectRatio="none" viewBox="0 0 970 382.4" fill="rgba(36, 36, 36, 1.0)"><defs id="SHAPE532_defs"><linearGradient id="SHAPE532_desktop_gradient" gradientTransform="rotate(0)"><stop offset="0%" stop-color="rgba(13, 98, 242, 1.0)"/><stop offset="100%" stop-color="rgba(5, 31, 77, 1.0)"/></linearGradient></defs><defs><style>.cls-1{opacity:0.1;}.cls-2{opacity:0.3;}</style></defs><path class="cls-1" d="M819.1,241.4,0,382.4V0H965.9a107.4,107.4,0,0,1-8.9,80.8l-55.1,102C885.2,213.5,854.7,235.1,819.1,241.4Z"/><path class="cls-2" d="M815.8,238.3,0,378.4.2,0H962.6a104.8,104.8,0,0,1-8.9,79.7L898.5,180.4C881.9,210.8,851.4,232.1,815.8,238.3Z"/><path class="cls-3" d="M812.6,235.2,0,373.8V0H959.3a102.3,102.3,0,0,1-8.9,78.7l-55.1,99.4C878.6,208,848.1,229.1,812.6,235.2Z"/></svg>